# xmcd CD database file
#
# Track frame offsets:
#	170
#	16455
#	40215
#	55252
#	64085
#	75252
#	91400
#	109127
#	128610
#	150545
#	166367
#	182732
#	197532
#	213215
#	229040
#
# Disc length: 3357 seconds
#
# Revision: 0
# Processed by: cddbd v1.4PL0 Copyright (c) Steve Scherf et al.
# Submitted via: CDex 1.40Release
#
DISCID=b70d1b0f
DTITLE=B. B. King - B. B. Boogie
DYEAR=1900
DGENRE=Blues
TTITLE0=It's my own fault baby
TTITLE1=You've done lost your good thing now
TTITLE2=B. B. Boogie
TTITLE3=A new way of driving
TTITLE4=Catfish Blues
TTITLE5=Long nights
TTITLE6=That evil child
TTITLE7=Sweet sixteen
TTITLE8=Paying the cost to be the boss
TTITLE9=How blue can you get
TTITLE10=The other night blues
TTITLE11=Mr. Pawnbroker
TTITLE12=Walkin' and cryin'
TTITLE13=The letter
TTITLE14=Everyday I have the Blues
EXTD=ID3G: 0
EXTT0=
EXTT1=
EXTT2=
EXTT3=
EXTT4=
EXTT5=
EXTT6=
EXTT7=
EXTT8=
EXTT9=
EXTT10=
EXTT11=
EXTT12=
EXTT13=
EXTT14=
PLAYORDER=
